<svg width="71" height="71" viewBox="0 0 71 71" fill="none" xmlns="http://www.w3.org/2000/svg">
<path d="M11.8333 29.5833L9.74178 31.6749L7.65024 29.5833L9.74178 27.4918L11.8333 29.5833ZM62.125 53.25C62.125 54.0346 61.8133 54.7871 61.2585 55.3419C60.7037 55.8967 59.9513 56.2083 59.1667 56.2083C58.3821 56.2083 57.6296 55.8967 57.0748 55.3419C56.52 54.7871 56.2083 54.0346 56.2083 53.25H62.125ZM24.5334 46.4665L9.74178 31.6749L13.9249 27.4918L28.7165 42.2835L24.5334 46.4665ZM9.74178 27.4918L24.5334 12.7001L28.7165 16.8832L13.9249 31.6749L9.74178 27.4918ZM11.8333 26.625H41.4167V32.5417H11.8333V26.625ZM62.125 47.3333V53.25H56.2083V47.3333H62.125ZM41.4167 26.625C46.9088 26.625 52.1761 28.8068 56.0597 32.6903C59.9432 36.5739 62.125 41.8411 62.125 47.3333H56.2083C56.2083 43.4103 54.6499 39.648 51.8759 36.874C49.102 34.1001 45.3396 32.5417 41.4167 32.5417V26.625Z" fill="#797979"/>
</svg>
