<svg width="41" height="41" viewBox="0 0 41 41" fill="none" xmlns="http://www.w3.org/2000/svg">
<path fill-rule="evenodd" clip-rule="evenodd" d="M12.0484 0.123C14.2345 0.0223636 14.9315 0 20.5 0C26.0685 0 26.7655 0.0242272 28.9497 0.123C31.1339 0.221773 32.6248 0.570273 33.9294 1.07532C35.2954 1.59155 36.5347 2.3985 37.5597 3.44214C38.6034 4.46527 39.4085 5.70273 39.9228 7.07064C40.4297 8.37518 40.7764 9.86609 40.877 12.0465C40.9776 14.2363 41 14.9333 41 20.5C41 26.0685 40.9758 26.7655 40.877 28.9516C40.7782 31.132 40.4297 32.623 39.9228 33.9275C39.4084 35.2956 38.602 36.5351 37.5597 37.5597C36.5347 38.6034 35.2954 39.4085 33.9294 39.9228C32.6248 40.4297 31.1339 40.7764 28.9535 40.877C26.7655 40.9776 26.0685 41 20.5 41C14.9315 41 14.2345 40.9758 12.0484 40.877C9.86796 40.7782 8.37705 40.4297 7.0725 39.9228C5.70444 39.4084 4.46494 38.602 3.44027 37.5597C2.39734 36.536 1.59027 35.2971 1.07532 33.9294C0.570273 32.6248 0.223636 31.1339 0.123 28.9535C0.0223636 26.7637 0 26.0667 0 20.5C0 14.9315 0.0242272 14.2345 0.123 12.0503C0.221773 9.86609 0.570273 8.37518 1.07532 7.07064C1.59103 5.70288 2.39872 4.46399 3.44214 3.44027C4.46535 2.39757 5.70361 1.59051 7.07064 1.07532C8.37518 0.570273 9.86796 0.223636 12.0484 0.123ZM28.782 3.813C26.6202 3.71423 25.9716 3.69373 20.4981 3.69373C15.0246 3.69373 14.3761 3.71423 12.2143 3.813C10.2146 3.90432 9.12996 4.23791 8.40686 4.51932C7.45082 4.89205 6.76686 5.33373 6.04936 6.05123C5.36922 6.71291 4.84579 7.51844 4.51745 8.40873C4.23605 9.13182 3.90245 10.2165 3.81114 12.2161C3.71236 14.378 3.69186 15.0265 3.69186 20.5C3.69186 25.9735 3.71236 26.622 3.81114 28.7839C3.90245 30.7835 4.23605 31.8682 4.51745 32.5913C4.84545 33.4802 5.36914 34.2872 6.04936 34.9488C6.71095 35.629 7.51791 36.1527 8.40686 36.4807C9.12996 36.7621 10.2146 37.0957 12.2143 37.187C14.3761 37.2858 15.0228 37.3063 20.4981 37.3063C25.9735 37.3063 26.6202 37.2858 28.782 37.187C30.7817 37.0957 31.8663 36.7621 32.5894 36.4807C33.5455 36.108 34.2294 35.6663 34.9469 34.9488C35.6271 34.2872 36.1508 33.4802 36.4788 32.5913C36.7602 31.8682 37.0938 30.7835 37.1851 28.7839C37.2839 26.622 37.3044 25.9735 37.3044 20.5C37.3044 15.0265 37.2839 14.378 37.1851 12.2161C37.0938 10.2165 36.7602 9.13182 36.4788 8.40873C36.1061 7.45268 35.6644 6.76873 34.9469 6.05123C34.2852 5.37113 33.4797 4.84771 32.5894 4.51932C31.8663 4.23791 30.7817 3.90432 28.782 3.813ZM17.8797 26.8196C19.342 27.4283 20.9703 27.5105 22.4865 27.052C24.0027 26.5936 25.3126 25.623 26.1927 24.306C27.0727 22.989 27.4682 21.4074 27.3117 19.8312C27.1551 18.2549 26.4562 16.782 25.3343 15.6639C24.6191 14.9491 23.7543 14.4018 22.8022 14.0614C21.8501 13.721 20.8344 13.5959 19.8282 13.6951C18.8219 13.7944 17.8502 14.1155 16.983 14.6354C16.1157 15.1552 15.3745 15.8609 14.8127 16.7016C14.251 17.5423 13.8826 18.4971 13.7341 19.4973C13.5856 20.4975 13.6607 21.5181 13.9541 22.4857C14.2474 23.4534 14.7516 24.344 15.4304 25.0933C16.1092 25.8427 16.9457 26.4323 17.8797 26.8196ZM13.0492 13.0492C14.0276 12.0707 15.1892 11.2946 16.4676 10.765C17.7461 10.2355 19.1163 9.96295 20.5 9.96295C21.8837 9.96295 23.2539 10.2355 24.5324 10.765C25.8108 11.2946 26.9724 12.0707 27.9508 13.0492C28.9293 14.0276 29.7054 15.1892 30.235 16.4676C30.7645 17.7461 31.037 19.1163 31.037 20.5C31.037 21.8837 30.7645 23.2539 30.235 24.5324C29.7054 25.8108 28.9293 26.9724 27.9508 27.9508C25.9747 29.9269 23.2946 31.037 20.5 31.037C17.7054 31.037 15.0253 29.9269 13.0492 27.9508C11.0731 25.9747 9.96295 23.2946 9.96295 20.5C9.96295 17.7054 11.0731 15.0253 13.0492 13.0492ZM33.374 11.5322C33.6165 11.3035 33.8106 11.0284 33.9448 10.7233C34.0791 10.4182 34.1508 10.0893 34.1556 9.75601C34.1605 9.42272 34.0984 9.09184 33.9731 8.78296C33.8478 8.47409 33.6618 8.1935 33.4261 7.9578C33.1904 7.7221 32.9098 7.53609 32.6009 7.41078C32.2921 7.28547 31.9612 7.22341 31.6279 7.22827C31.2946 7.23313 30.9657 7.30481 30.6606 7.43907C30.3555 7.57333 30.0805 7.76744 29.8517 8.00991C29.4069 8.48146 29.1634 9.10782 29.1728 9.75601C29.1823 10.4042 29.444 11.0232 29.9023 11.4816C30.3607 11.94 30.9797 12.2017 31.6279 12.2111C32.2761 12.2206 32.9024 11.977 33.374 11.5322Z" fill="white"/>
</svg>
