<svg width="41" height="41" viewBox="0 0 41 41" fill="none" xmlns="http://www.w3.org/2000/svg">
<path fill-rule="evenodd" clip-rule="evenodd" d="M3.77525 39C2.79481 39 2 38.2008 2 37.215V3.78503C2 2.79918 2.79481 2 3.77525 2H37.2248C38.2052 2 39 2.79918 39 3.78503V37.215C39 38.2008 38.2052 39 37.2248 39C36.0413 39 24.8914 39 3.77525 39Z" stroke="white" stroke-width="3" stroke-linecap="round" stroke-linejoin="round"/>
<path fill-rule="evenodd" clip-rule="evenodd" d="M32.8286 15.3594H29.1671H28.7346C27.5993 15.3594 26.679 16.2798 26.679 17.415V21.5273H32.8286L31.9279 27.6918H26.679V39H19.9164V27.6918H14.333V21.5273H19.8442L19.9164 15.6759L19.8963 13.5788C19.8679 10.6173 22.2455 8.19361 25.2069 8.16516C25.224 8.165 25.2412 8.16492 25.2584 8.16492H32.8286V15.3594Z" fill="white"/>
</svg>
