<svg width="157" height="101" viewBox="0 0 157 101" fill="none" xmlns="http://www.w3.org/2000/svg">
<path d="M3.70996 23V1.80859H6.34375V23H3.70996ZM7.64551 12.6768L13.8516 1.80859H16.6367L10.4307 12.6768L16.7578 23H14.0029L7.64551 12.6768ZM21.9612 23L25.9876 5.1084H26.472L27.5012 9.80078L24.5647 23H21.9612ZM26.805 19.6094L27.3802 17.0361H30.6194L27.2591 1.83887H29.8929L34.6761 23H32.0423L31.2854 19.6094H26.805ZM40.4244 23V1.80859H43.0582V23H40.4244ZM44.5718 13.8271V11.4355H47.3267C49.466 11.3952 50.5458 10.2044 50.566 7.86328C50.5256 5.46159 49.3046 4.25065 46.9029 4.23047H44.5718V1.80859H47.3873C50.3137 1.90951 52.12 3.13053 52.8062 5.47168C53.008 6.1377 53.1089 6.86426 53.1089 7.65137C53.0888 9.99251 52.3925 11.6374 51.0201 12.5859C52.1906 13.2116 52.897 14.3519 53.1392 16.0068C53.1594 16.1481 53.1796 16.2894 53.1998 16.4307L53.7144 23H51.232L50.7779 17.6113C50.6164 15.8757 50.1724 14.7656 49.4459 14.2812C48.9615 13.9583 48.3056 13.807 47.4781 13.8271H44.5718ZM59.493 23V1.80859H62.1268V23H59.493ZM63.6405 13.8271V11.4355H66.3954C68.5347 11.3952 69.6144 10.2044 69.6346 7.86328C69.5942 5.46159 68.3732 4.25065 65.9715 4.23047H63.6405V1.80859H66.4559C69.3823 1.90951 71.1886 3.13053 71.8748 5.47168C72.0767 6.1377 72.1776 6.86426 72.1776 7.65137C72.1574 9.99251 71.4611 11.6374 70.0887 12.5859C71.2593 13.2116 71.9657 14.3519 72.2079 16.0068C72.228 16.1481 72.2482 16.2894 72.2684 16.4307L72.783 23H70.3006L69.8465 17.6113C69.6851 15.8757 69.2411 14.7656 68.5145 14.2812C68.0301 13.9583 67.3742 13.807 66.5467 13.8271H63.6405ZM78.38 17.1572V1.80859H81.0441V17.1572C81.0441 18.4893 81.7403 19.4883 83.1329 20.1543C83.6375 20.3965 84.0613 20.5176 84.4044 20.5176V23.1514C83.2338 23.1514 82.0633 22.7376 80.8927 21.9102C79.2377 20.7194 78.4002 19.1351 78.38 17.1572ZM85.9181 23.1514V20.5176C86.5841 20.5176 87.2703 20.2451 87.9767 19.7002C88.8243 19.0342 89.2583 18.1865 89.2784 17.1572V1.80859H91.9122V17.1572C91.9122 19.4176 90.9031 21.123 88.8849 22.2734C87.8556 22.8587 86.8667 23.1514 85.9181 23.1514ZM97.5092 18.2168L99.9311 17.3691C100.052 18.2168 100.375 18.9131 100.9 19.458C101.445 20.0029 101.959 20.3359 102.444 20.457L103.14 20.6387V23.0908C101.364 23.0908 99.8705 22.334 98.6596 20.8203C97.9128 19.8717 97.5294 19.0039 97.5092 18.2168ZM97.7514 7.53027C97.7514 5.35059 98.6898 3.71582 100.567 2.62598C101.495 2.08105 102.353 1.80859 103.14 1.80859V4.29102C102.434 4.37174 101.768 4.74512 101.142 5.41113C100.577 6.03678 100.294 6.75326 100.294 7.56055C100.294 8.79167 101.182 9.72005 102.958 10.3457C103.402 10.487 104.079 10.6787 104.987 10.9209C105.935 11.1833 106.601 11.3851 106.985 11.5264C108.801 12.2731 109.962 13.2923 110.466 14.584C110.729 15.2298 110.86 15.9564 110.86 16.7637C110.86 18.5195 110.184 20.0433 108.831 21.335C107.6 22.5055 106.208 23.0908 104.654 23.0908V20.6387C105.481 20.5983 106.278 20.2048 107.045 19.458C107.812 18.6709 108.206 17.7728 108.226 16.7637C108.226 15.3509 107.247 14.3216 105.289 13.6758C104.866 13.5345 104.22 13.363 103.352 13.1611C102.424 12.9391 101.798 12.7575 101.475 12.6162C99.7595 11.9098 98.6596 10.9814 98.1752 9.83105C97.8926 9.16504 97.7514 8.39811 97.7514 7.53027ZM104.654 4.29102V1.80859C106.41 1.80859 107.873 2.58561 109.043 4.13965C109.629 4.92676 109.952 5.63314 110.012 6.25879L107.56 7.07617C107.277 5.66341 106.47 4.7653 105.138 4.38184C104.815 4.32129 104.654 4.29102 104.654 4.29102ZM116.608 23V1.80859H127.628V4.41211H119.242V11.1328H124.782V13.7666H119.242V20.3965H127.628V23H116.608ZM133.769 23V1.80859H136.403V20.3965H145.152V23H133.769Z" fill="white"/>
<path d="M22.2505 45.9434L65.7739 65.19L65.1761 66.5484L21.6527 47.3017L22.2505 45.9434Z" fill="white"/>
<path d="M45.0039 46.7802L69.5012 65.0766L68.6163 66.2672L44.119 47.9707L45.0039 46.7802Z" fill="white"/>
<path d="M60.4058 37.2913L73.5216 65.7256L72.1773 66.3487L59.0614 37.9144L60.4058 37.2913Z" fill="white"/>
<path d="M89.7471 37.9463L77.4621 66.1291L76.1049 65.5347L88.3898 37.3518L89.7471 37.9463Z" fill="white"/>
<path d="M105.684 48.0536L81.8654 66.5295L80.9589 65.3553L104.777 46.8794L105.684 48.0536Z" fill="white"/>
<path d="M127.104 46.9904L83.7116 66.5799L83.1034 65.2262L126.495 45.6366L127.104 46.9904Z" fill="white"/>
<path d="M146.121 38.9659L135.885 43.5872L135.277 42.2334L145.513 37.6122L146.121 38.9659Z" fill="white"/>
<path d="M118.172 38.3821L112.149 43.0543L111.242 41.8801L117.265 37.2079L118.172 38.3821Z" fill="white"/>
<path d="M31.0552 37.0941L38.0276 42.3116L37.1416 43.5013L30.1692 38.2839L31.0552 37.0941Z" fill="white"/>
<path d="M1.63867 37.1173L14.273 43.3195L13.6215 44.6529L0.987247 38.4507L1.63867 37.1173Z" fill="white"/>
<path d="M0.144531 38.0188L2.39529 28.9246L3.83284 29.2821L1.58208 38.3763L0.144531 38.0188Z" fill="white"/>
<path d="M14.3174 38.0188L16.5681 28.9246L18.0057 29.2821L15.7549 38.3763L14.3174 38.0188Z" fill="white"/>
<path d="M29.376 38.0188L31.6267 28.9246L33.0643 29.2821L30.8135 38.3763L29.376 38.0188Z" fill="white"/>
<path d="M44.6807 38.0188L46.9314 28.9246L48.369 29.2821L46.1182 38.3763L44.6807 38.0188Z" fill="white"/>
<path d="M59.4922 38.0188L61.7429 28.9246L63.1805 29.2821L60.9297 38.3763L59.4922 38.0188Z" fill="white"/>
<path d="M73.8096 38.0188L76.0603 28.9246L77.4979 29.2821L75.2471 38.3763L73.8096 38.0188Z" fill="white"/>
<path d="M88.374 38.0188L90.6248 28.9246L92.0623 29.2821L89.8116 38.3763L88.374 38.0188Z" fill="white"/>
<path d="M103.186 38.0188L105.436 28.9246L106.874 29.2821L104.623 38.3763L103.186 38.0188Z" fill="white"/>
<path d="M117.75 38.0188L120.001 28.9246L121.438 29.2821L119.188 38.3763L117.75 38.0188Z" fill="white"/>
<path d="M132.067 38.2662L134.318 29.172L135.756 29.5295L133.505 38.6237L132.067 38.2662Z" fill="white"/>
<path d="M14.9429 37.9202L12.8366 28.7912L14.2797 28.4567L16.3859 37.5856L14.9429 37.9202Z" fill="white"/>
<path d="M29.1157 37.9202L27.0095 28.7912L28.4525 28.4567L30.5588 37.5856L29.1157 37.9202Z" fill="white"/>
<path d="M44.1743 37.9202L42.0681 28.7912L43.5111 28.4567L45.6174 37.5856L44.1743 37.9202Z" fill="white"/>
<path d="M59.479 37.9202L57.3727 28.7912L58.8158 28.4567L60.922 37.5856L59.479 37.9202Z" fill="white"/>
<path d="M74.2905 37.9202L72.1843 28.7912L73.6273 28.4567L75.7336 37.5856L74.2905 37.9202Z" fill="white"/>
<path d="M88.6079 37.9202L86.5017 28.7912L87.9447 28.4567L90.051 37.5856L88.6079 37.9202Z" fill="white"/>
<path d="M103.172 37.9202L101.066 28.7912L102.509 28.4567L104.615 37.5856L103.172 37.9202Z" fill="white"/>
<path d="M117.984 37.9202L115.878 28.7912L117.321 28.4567L119.427 37.5856L117.984 37.9202Z" fill="white"/>
<path d="M132.548 37.9202L130.442 28.7912L131.885 28.4567L133.991 37.5856L132.548 37.9202Z" fill="white"/>
<path d="M146.866 38.1676L144.759 29.0387L146.203 28.7041L148.309 37.8331L146.866 38.1676Z" fill="white"/>
<path d="M2.22168 28.2092L14.3176 28.2092V29.6939H2.22168V28.2092Z" fill="white"/>
<path d="M17.062 39.39L23.9495 45.4404L22.9733 46.557L16.0858 40.5066L17.062 39.39Z" fill="white"/>
<path d="M40.5015 38.886L47.3889 44.9363L46.4127 46.0529L39.5253 40.0026L40.5015 38.886Z" fill="white"/>
<path d="M75.061 37.4012L81.9485 43.4516L80.9723 44.5682L74.0848 38.5178L75.061 37.4012Z" fill="white"/>
<path d="M108.633 38.886L115.521 44.9363L114.545 46.0529L107.657 40.0026L108.633 38.886Z" fill="white"/>
<path d="M131.591 38.886L138.478 44.9363L137.502 46.0529L130.615 40.0026L131.591 38.886Z" fill="white"/>
<path d="M16.7021 51.5139L22.6796 44.5913L23.7995 45.5629L17.822 52.4856L16.7021 51.5139Z" fill="white"/>
<path d="M40.1416 51.0099L46.1191 44.0872L47.239 45.0589L41.2615 51.9815L40.1416 51.0099Z" fill="white"/>
<path d="M74.7012 49.5253L80.6786 42.6026L81.7985 43.5743L75.8211 50.4969L74.7012 49.5253Z" fill="white"/>
<path d="M74.4429 95.1682L80.9013 83.8722L81.9487 85.704L75.4902 97L74.4429 95.1682Z" fill="white"/>
<path d="M76.5132 76.2761L70.1878 87.8002L69.1193 86.0061L75.4447 74.4821L76.5132 76.2761Z" fill="white"/>
<path d="M108.273 51.0099L114.251 44.0872L115.371 45.0589L109.393 51.9815L108.273 51.0099Z" fill="white"/>
<path d="M131.231 51.0099L137.208 44.0872L138.328 45.0589L132.351 51.9815L131.231 51.0099Z" fill="white"/>
<path d="M16.395 28.2092L28.4909 28.2092V29.6939H16.395V28.2092Z" fill="white"/>
<path d="M31.4531 28.2092L43.549 28.2092V29.6939H31.4531V28.2092Z" fill="white"/>
<path d="M46.7583 28.2092L58.8542 28.2092V29.6939H46.7583V28.2092Z" fill="white"/>
<path d="M64.6763 65.0791L85.659 65.0791V66.5638H64.6763V65.0791Z" fill="white"/>
<path d="M64.9229 71.5127L85.9056 71.5127V72.9974H64.9229V71.5127Z" fill="white"/>
<path d="M71.5879 74.4822L79.2404 74.4822V75.9669H71.5879V74.4822Z" fill="white"/>
<g filter="url(#filter0_dd_301_10097)">
<path d="M79.2407 72.75L79.2407 75.9668H77.7596V72.75H79.2407Z" fill="white"/>
</g>
<path d="M73.0693 72.75L73.0693 75.9668H71.5882V72.75H73.0693Z" fill="white"/>
<path d="M70.6006 84.875L81.2154 84.875V86.3597H70.6006V84.875Z" fill="white"/>
<path d="M84.4243 72.9974L84.4243 65.0791H85.9054V72.9974H84.4243Z" fill="white"/>
<path d="M64.6763 72.9974L64.6763 65.0791H66.1574V72.9974H64.6763Z" fill="white"/>
<path d="M61.5693 28.2092L73.6653 28.2092V29.6939H61.5693V28.2092Z" fill="white"/>
<path d="M75.8872 28.2092L87.9831 28.2092V29.6939H75.8872V28.2092Z" fill="white"/>
<path d="M90.4517 28.2092L102.548 28.2092V29.6939H90.4517V28.2092Z" fill="white"/>
<path d="M105.263 28.2092L117.359 28.2092V29.6939H105.263V28.2092Z" fill="white"/>
<path d="M119.827 28.2092L131.923 28.2092V29.6939H119.827V28.2092Z" fill="white"/>
<path d="M134.145 28.4567L146.241 28.4567V29.9414H134.145V28.4567Z" fill="white"/>
<path d="M0 37.1173L148.36 37.1173V38.602H0V37.1173Z" fill="white"/>
<path d="M11.9043 45.3915L18.772 51.4245L17.7958 52.5411L10.9281 46.5081L11.9043 45.3915Z" fill="white"/>
<path d="M35.3433 44.8875L42.211 50.9205L41.2348 52.0371L34.3671 46.004L35.3433 44.8875Z" fill="white"/>
<path d="M69.9033 43.4027L76.771 49.4357L75.7948 50.5523L68.9271 44.5193L69.9033 43.4027Z" fill="white"/>
<path d="M70.167 83.9807L76.5538 95.1514L75.5065 96.9832L69.1197 85.8125L70.167 83.9807Z" fill="white"/>
<path d="M80.9189 87.3087L74.4032 76.3682L75.4289 74.4994L81.9447 85.44L80.9189 87.3087Z" fill="white"/>
<path d="M103.476 44.8875L110.343 50.9205L109.367 52.0371L102.499 46.004L103.476 44.8875Z" fill="white"/>
<path d="M126.433 44.8875L133.301 50.9205L132.325 52.0371L125.457 46.004L126.433 44.8875Z" fill="white"/>
<path d="M10.8735 46.4542L17.0047 39.3536L18.1246 40.3252L11.9934 47.4259L10.8735 46.4542Z" fill="white"/>
<path d="M34.313 45.9502L40.4442 38.8495L41.5641 39.8212L35.4329 46.9218L34.313 45.9502Z" fill="white"/>
<path d="M68.8726 44.4655L75.0038 37.3648L76.1236 38.3364L69.9925 45.4371L68.8726 44.4655Z" fill="white"/>
<path d="M102.445 45.9502L108.576 38.8495L109.696 39.8212L103.565 46.9218L102.445 45.9502Z" fill="white"/>
<path d="M125.402 45.9502L131.534 38.8495L132.653 39.8212L126.522 46.9218L125.402 45.9502Z" fill="white"/>
<defs>
<filter id="filter0_dd_301_10097" x="52.7598" y="47.75" width="51.481" height="53.2168" filterUnits="userSpaceOnUse" color-interpolation-filters="sRGB">
<feFlood flood-opacity="0" result="BackgroundImageFix"/>
<feColorMatrix in="SourceAlpha" type="matrix" values="0 0 0 0 0 0 0 0 0 0 0 0 0 0 0 0 0 0 127 0" result="hardAlpha"/>
<feOffset/>
<feGaussianBlur stdDeviation="12.5"/>
<feComposite in2="hardAlpha" operator="out"/>
<feColorMatrix type="matrix" values="0 0 0 0 0.898039 0 0 0 0 0.00392157 0 0 0 0 0.835294 0 0 0 1 0"/>
<feBlend mode="normal" in2="BackgroundImageFix" result="effect1_dropShadow_301_10097"/>
<feColorMatrix in="SourceAlpha" type="matrix" values="0 0 0 0 0 0 0 0 0 0 0 0 0 0 0 0 0 0 127 0" result="hardAlpha"/>
<feOffset/>
<feGaussianBlur stdDeviation="12.5"/>
<feComposite in2="hardAlpha" operator="out"/>
<feColorMatrix type="matrix" values="0 0 0 0 0.898039 0 0 0 0 0.00392157 0 0 0 0 0.835294 0 0 0 1 0"/>
<feBlend mode="normal" in2="effect1_dropShadow_301_10097" result="effect2_dropShadow_301_10097"/>
<feBlend mode="normal" in="SourceGraphic" in2="effect2_dropShadow_301_10097" result="shape"/>
</filter>
</defs>
</svg>
