<svg width="33" height="35" viewBox="0 0 33 35" fill="none" xmlns="http://www.w3.org/2000/svg">
<path fill-rule="evenodd" clip-rule="evenodd" d="M1.17358 8.90906H31.0689V11.4545H1.17358V8.90906Z" fill="white"/>
<path fill-rule="evenodd" clip-rule="evenodd" d="M7.00235 0C7.63184 0 8.14214 0.498592 8.14214 1.11364V3.34091C8.14214 3.95595 7.63184 4.45455 7.00235 4.45455C6.37285 4.45455 5.86255 3.95595 5.86255 3.34091V1.11364C5.86255 0.498592 6.37285 0 7.00235 0ZM25.2391 0C25.8686 0 26.3789 0.498592 26.3789 1.11364V3.34091C26.3789 3.95595 25.8686 4.45455 25.2391 4.45455C24.6096 4.45455 24.0993 3.95595 24.0993 3.34091V1.11364C24.0993 0.498592 24.6096 0 25.2391 0Z" fill="white"/>
<path d="M19.0514 30.5455C19.8607 30.5455 20.5168 29.5483 20.5168 28.3182C20.5168 27.0881 19.8607 26.0909 19.0514 26.0909C18.242 26.0909 17.5859 27.0881 17.5859 28.3182C17.5859 29.5483 18.242 30.5455 19.0514 30.5455Z" fill="white"/>
<path d="M13.1891 30.5455C13.9984 30.5455 14.6545 29.5483 14.6545 28.3182C14.6545 27.0881 13.9984 26.0909 13.1891 26.0909C12.3797 26.0909 11.7236 27.0881 11.7236 28.3182C11.7236 29.5483 12.3797 30.5455 13.1891 30.5455Z" fill="white"/>
<path d="M7.62109 30.5455C8.59231 30.5455 9.37964 29.5483 9.37964 28.3182C9.37964 27.0881 8.59231 26.0909 7.62109 26.0909C6.64988 26.0909 5.86255 27.0881 5.86255 28.3182C5.86255 29.5483 6.64988 30.5455 7.62109 30.5455Z" fill="white"/>
<path d="M13.1891 23.5455C13.9984 23.5455 14.6545 22.8332 14.6545 21.9546C14.6545 21.0759 13.9984 20.3636 13.1891 20.3636C12.3797 20.3636 11.7236 21.0759 11.7236 21.9546C11.7236 22.8332 12.3797 23.5455 13.1891 23.5455Z" fill="white"/>
<path d="M7.62109 23.5455C8.59231 23.5455 9.37964 22.8332 9.37964 21.9546C9.37964 21.0759 8.59231 20.3636 7.62109 20.3636C6.64988 20.3636 5.86255 21.0759 5.86255 21.9546C5.86255 22.8332 6.64988 23.5455 7.62109 23.5455Z" fill="white"/>
<path d="M24.6204 23.5455C25.5916 23.5455 26.3789 22.8332 26.3789 21.9546C26.3789 21.0759 25.5916 20.3636 24.6204 20.3636C23.6491 20.3636 22.8618 21.0759 22.8618 21.9546C22.8618 22.8332 23.6491 23.5455 24.6204 23.5455Z" fill="white"/>
<path d="M19.0514 23.5455C19.8607 23.5455 20.5168 22.8332 20.5168 21.9546C20.5168 21.0759 19.8607 20.3636 19.0514 20.3636C18.242 20.3636 17.5859 21.0759 17.5859 21.9546C17.5859 22.8332 18.242 23.5455 19.0514 23.5455Z" fill="white"/>
<path d="M24.6204 17.8182C25.5916 17.8182 26.3789 16.821 26.3789 15.5909C26.3789 14.3608 25.5916 13.3636 24.6204 13.3636C23.6491 13.3636 22.8618 14.3608 22.8618 15.5909C22.8618 16.821 23.6491 17.8182 24.6204 17.8182Z" fill="white"/>
<path d="M19.0514 17.8182C19.8607 17.8182 20.5168 16.821 20.5168 15.5909C20.5168 14.3608 19.8607 13.3636 19.0514 13.3636C18.242 13.3636 17.5859 14.3608 17.5859 15.5909C17.5859 16.821 18.242 17.8182 19.0514 17.8182Z" fill="white"/>
<path fill-rule="evenodd" clip-rule="evenodd" d="M4.60571 5.04194C3.33388 5.04194 2.30286 6.15967 2.30286 7.53845V30.007C2.30286 31.3858 3.33388 32.5035 4.60571 32.5035H27.6343C28.9061 32.5035 29.9371 31.3858 29.9371 30.007V7.53845C29.9371 6.15967 28.9061 5.04194 27.6343 5.04194H4.60571ZM0 7.53845C0 4.78089 2.06205 2.54544 4.60571 2.54544H27.6343C30.178 2.54544 32.24 4.78089 32.24 7.53845V30.007C32.24 32.7645 30.178 35 27.6343 35H4.60571C2.06205 35 0 32.7645 0 30.007V7.53845Z" fill="white"/>
</svg>
