<svg width="39" height="39" viewBox="0 0 39 39" fill="none" xmlns="http://www.w3.org/2000/svg">
<path fill-rule="evenodd" clip-rule="evenodd" d="M3.67929 37C2.75185 37 2 36.244 2 35.3115V3.68854C2 2.75598 2.75185 2 3.67929 2H35.3207C36.2481 2 37 2.75598 37 3.68854V35.3115C37 36.244 36.2481 37 35.3207 37C34.2012 37 23.654 37 3.67929 37Z" stroke="white" stroke-width="3" stroke-linecap="round" stroke-linejoin="round"/>
<path fill-rule="evenodd" clip-rule="evenodd" d="M31.1628 14.6373H27.6993H27.2901C26.2162 14.6373 25.3456 15.5079 25.3456 16.5818V20.4718H31.1628L30.3108 26.3031H25.3456V37H18.9486V26.3031H13.667V20.4718H18.8803L18.9486 14.9367L18.9296 12.9529C18.9027 10.1516 21.1517 7.85887 23.9531 7.83196C23.9693 7.83181 23.9855 7.83173 24.0018 7.83173H31.1628V14.6373Z" fill="white"/>
</svg>
