<svg width="35" height="35" viewBox="0 0 35 35" fill="none" xmlns="http://www.w3.org/2000/svg">
<path d="M23.4062 17.5C23.4062 14.2188 20.7812 11.5938 17.5 11.5938C14.2188 11.5938 11.5938 14.2188 11.5938 17.5C11.5938 20.7812 14.2188 23.4062 17.5 23.4062C20.7812 23.4062 23.4062 20.7812 23.4062 17.5ZM26.4688 17.5C26.4688 22.5312 22.5312 26.4688 17.5 26.4688C12.4688 26.4688 8.53125 22.5312 8.53125 17.5C8.53125 12.4688 12.4688 8.53125 17.5 8.53125C22.5312 8.53125 26.4688 12.4688 26.4688 17.5ZM28.875 8.09375C28.875 9.40625 28 10.2812 26.6875 10.2812C25.375 10.2812 24.5 9.40625 24.5 8.09375C24.5 6.78125 25.375 5.90625 26.6875 5.90625C28 5.90625 28.875 7 28.875 8.09375ZM17.5 3.0625C14.875 3.0625 9.40625 2.84375 7.21875 3.71875C5.6875 4.375 4.375 5.6875 3.9375 7.21875C3.0625 9.40625 3.28125 14.875 3.28125 17.5C3.28125 20.125 3.0625 25.5937 3.9375 27.7812C4.375 29.3125 5.6875 30.625 7.21875 31.0625C9.40625 31.9375 15.0937 31.7188 17.5 31.7188C19.9063 31.7188 25.5937 31.9375 27.7812 31.0625C29.3125 30.4063 30.4063 29.3125 31.0625 27.7812C31.9375 25.375 31.7188 19.9063 31.7188 17.5C31.7188 15.0937 31.9375 9.40625 31.0625 7.21875C30.625 5.6875 29.3125 4.375 27.7812 3.9375C25.5937 2.84375 20.125 3.0625 17.5 3.0625ZM35 17.5V24.7188C35 27.3438 34.125 29.9688 32.1563 32.1563C30.1875 34.125 27.5625 35 24.7188 35H10.2812C7.65625 35 5.03125 34.125 2.84375 32.1563C1.09375 30.1875 0 27.5625 0 24.7188V10.2812C0 7.4375 1.09375 4.8125 2.84375 2.84375C5.03125 1.09375 7.65625 0 10.2812 0H24.7188C27.3438 0 29.9688 0.875 32.1563 2.84375C33.9063 4.8125 35 7.4375 35 10.2812V17.5Z" fill="white"/>
</svg>
