<svg width="27" height="35" viewBox="0 0 27 35" fill="none" xmlns="http://www.w3.org/2000/svg">
<path d="M13.4816 8C12.1997 8 10.9465 8.38203 9.88064 9.09779C8.81474 9.81354 7.98397 10.8309 7.49339 12.0211C7.00281 13.2114 6.87445 14.5211 7.12455 15.7847C7.37464 17.0483 7.99196 18.2089 8.89843 19.1199C9.80491 20.0309 10.9598 20.6513 12.2171 20.9026C13.4745 21.154 14.7777 21.025 15.9621 20.5319C17.1464 20.0389 18.1587 19.204 18.8709 18.1328C19.5831 17.0616 19.9633 15.8022 19.9633 14.5139C19.9633 12.7863 19.2804 11.1295 18.0649 9.90787C16.8493 8.68628 15.2007 8 13.4816 8ZM13.4816 17.3056C12.9322 17.3056 12.3952 17.1418 11.9384 16.8351C11.4815 16.5283 11.1255 16.0923 10.9152 15.5822C10.705 15.0721 10.65 14.5108 10.7572 13.9693C10.8644 13.4277 11.1289 12.9303 11.5174 12.5399C11.9059 12.1495 12.4009 11.8836 12.9397 11.7759C13.4786 11.6681 14.0371 11.7234 14.5447 11.9347C15.0523 12.146 15.4861 12.5038 15.7913 12.9629C16.0966 13.422 16.2595 13.9617 16.2595 14.5139C16.2595 15.2543 15.9668 15.9644 15.4459 16.4879C14.9249 17.0114 14.2184 17.3056 13.4816 17.3056Z" fill="white"/>
<path d="M13.315 1.75256e-08C9.80659 -0.000184431 6.43989 1.45557 3.94664 4.05087C1.45338 6.64617 0.0350841 10.1713 0 13.86C0 23.4499 11.7338 34.1249 12.2332 34.5799C12.5346 34.851 12.9183 35 13.315 35C13.7117 35 14.0954 34.851 14.3968 34.5799C14.9794 34.1249 26.63 23.4499 26.63 13.86C26.5949 10.1713 25.1766 6.64617 22.6834 4.05087C20.1901 1.45557 16.8234 -0.000184431 13.315 1.75256e-08ZM13.315 30.8874C10.5355 28.1049 3.32875 20.3874 3.32875 13.86C3.32875 11.0752 4.38087 8.40448 6.25366 6.43536C8.12644 4.46623 10.6665 3.35999 13.315 3.35999C15.9635 3.35999 18.5036 4.46623 20.3763 6.43536C22.2491 8.40448 23.3012 11.0752 23.3012 13.86C23.3012 20.3349 16.0945 28.1049 13.315 30.8874Z" fill="white"/>
</svg>
