<svg width="35" height="35" viewBox="0 0 35 35" fill="none" xmlns="http://www.w3.org/2000/svg">
<path d="M17.5 0C7.83271 0 0 7.83271 0 17.5C0 27.1673 7.83271 35 17.5 35C27.1673 35 35 27.1673 35 17.5C35 7.83271 27.1673 0 17.5 0ZM17.5 2.91667C19.4173 2.90895 21.3171 3.28089 23.0899 4.01104C24.8627 4.74119 26.4735 5.8151 27.8292 7.17082C29.1849 8.52655 30.2588 10.1373 30.989 11.9101C31.7191 13.6829 32.091 15.5827 32.0833 17.5C32.091 19.4173 31.7191 21.3171 30.989 23.0899C30.2588 24.8627 29.1849 26.4735 27.8292 27.8292C26.4735 29.1849 24.8627 30.2588 23.0899 30.989C21.3171 31.7191 19.4173 32.091 17.5 32.0833C15.5827 32.091 13.6829 31.7191 11.9101 30.989C10.1373 30.2588 8.52655 29.1849 7.17082 27.8292C5.8151 26.4735 4.74119 24.8627 4.01104 23.0899C3.28089 21.3171 2.90895 19.4173 2.91667 17.5C2.90895 15.5827 3.28089 13.6829 4.01104 11.9101C4.74119 10.1373 5.8151 8.52655 7.17082 7.17082C8.52655 5.8151 10.1373 4.74119 11.9101 4.01104C13.6829 3.28089 15.5827 2.90895 17.5 2.91667ZM15.1754 9.84375C12.339 9.84375 9.86708 10.1062 7.51917 10.8471C6.89792 10.971 6.38021 11.4392 6.38021 12.3054C6.38021 13.1702 7.01896 13.9344 7.88375 13.8075C8.25417 13.8075 8.505 13.6719 8.75 13.6719C10.726 13.176 12.9544 12.9427 15.1754 12.9427C19.4935 12.9427 23.9254 13.9052 26.8873 15.6319C27.2577 15.7573 27.3831 15.9046 27.7535 15.9046C28.6198 15.9046 29.2235 15.2673 29.349 14.401C29.349 13.6602 28.9785 13.1877 28.4827 12.9427C24.78 10.8456 19.864 9.84375 15.1754 9.84375ZM14.7656 15.2673C12.1742 15.2673 10.3279 15.6377 8.47583 16.1335C7.86188 16.3771 7.51917 16.7606 7.51917 17.5C7.51917 18.1154 8.00917 18.7308 8.75 18.7308C9.00083 18.7308 9.10875 18.7192 9.47917 18.5938C10.8354 18.2233 12.6977 18.0017 14.6752 18.0017C18.7469 18.0017 22.2906 18.9933 24.8835 20.599C25.1271 20.7244 25.3794 20.8265 25.7483 20.8265C26.4892 20.8265 26.9792 20.1994 26.9792 19.46C26.9792 18.9642 26.7458 18.4742 26.25 18.2292C23.0417 16.2531 18.9642 15.2673 14.7656 15.2673ZM15.1754 20.599C13.0798 20.599 11.0921 20.8323 9.11458 21.3281C8.61875 21.4535 8.24833 21.8065 8.24833 22.4219C8.24833 22.9177 8.63625 23.4252 9.25167 23.4252C9.37708 23.4252 9.73583 23.2881 9.98083 23.2881C11.6396 22.9013 13.3366 22.7022 15.0398 22.6946C18.1212 22.6946 20.9402 23.4354 23.2881 24.7917C23.539 24.9171 23.8175 25.0192 24.0625 25.0192C24.5583 25.0192 25.0308 24.6487 25.1563 24.1544C25.1563 23.5331 24.8879 23.3042 24.5175 23.0606C21.8006 21.4535 18.6273 20.599 15.1754 20.599Z" fill="white"/>
</svg>
