<svg width="35" height="35" viewBox="0 0 35 35" fill="none" xmlns="http://www.w3.org/2000/svg">
<path fill-rule="evenodd" clip-rule="evenodd" d="M17.6126 6.70212C18.2917 6.70212 18.8423 7.31953 18.8423 8.08116V17.869C18.8423 17.8691 18.8423 17.8689 18.8423 17.869C18.8425 18.3443 19.011 18.8004 19.3107 19.1365L22.7248 22.965C23.205 23.5035 23.205 24.3767 22.7248 24.9152C22.2445 25.4538 21.4659 25.4538 20.9856 24.9152L17.5719 21.087C17.5718 21.087 17.5719 21.0871 17.5719 21.087C16.8108 20.2338 16.383 19.0764 16.3828 17.8696V8.08116C16.3828 7.31953 16.9334 6.70212 17.6126 6.70212Z" fill="white"/>
<path fill-rule="evenodd" clip-rule="evenodd" d="M17.5 2.8C9.38141 2.8 2.8 9.38141 2.8 17.5C2.8 25.6186 9.38141 32.2 17.5 32.2C25.6186 32.2 32.2 25.6186 32.2 17.5C32.2 9.38141 25.6186 2.8 17.5 2.8ZM0 17.5C0 7.83502 7.83502 0 17.5 0C27.165 0 35 7.83502 35 17.5C35 27.165 27.165 35 17.5 35C7.83502 35 0 27.165 0 17.5Z" fill="white"/>
</svg>
